<svg width="300" height="300" viewBox="0 0 300 300" fill="none" xmlns="http://www.w3.org/2000/svg">
<g clip-path="url(#clip0_2_37)">
<path fill-rule="evenodd" clip-rule="evenodd" d="M136.856 51.8553C163.301 35.0433 199.877 42.8825 218.396 69.33H218.405C222.8 75.4678 225.922 82.4198 227.587 89.778C229.253 97.1361 229.429 104.752 228.104 112.179C226.821 119.271 224.111 126.029 220.138 132.047C225.934 143.083 227.876 155.733 225.658 167.995C224.35 175.275 221.533 182.203 217.388 188.335C213.243 194.467 207.861 199.669 201.587 203.607L155.142 233.144C128.701 249.962 92.1227 242.121 73.6038 215.67C69.2099 209.531 66.0886 202.579 64.4227 195.221C62.7569 187.863 62.5801 180.248 63.9028 172.821C65.1868 165.728 67.8987 158.968 71.8748 152.951C66.0732 141.917 64.1256 129.267 66.3405 117.005C67.6506 109.724 70.4691 102.795 74.6157 96.6633C78.7624 90.5312 84.146 85.33 90.4221 81.3926L136.856 51.8553ZM110.213 217.048C117.294 219.667 125.01 220.055 132.319 218.159C135.658 217.268 138.841 215.873 141.757 214.021L188.205 184.494C191.978 182.125 195.214 178.997 197.707 175.309C200.2 171.621 201.894 167.455 202.682 163.077C203.477 158.611 203.371 154.032 202.369 149.608C201.367 145.184 199.489 141.004 196.847 137.313C192.543 131.122 186.438 126.398 179.357 123.778C172.276 121.159 164.561 120.771 157.252 122.667C153.913 123.556 150.73 124.951 147.814 126.804L130.093 138.072C129.212 138.628 128.252 139.048 127.244 139.316C125.042 139.886 122.716 139.768 120.583 138.978C118.45 138.187 116.61 136.763 115.314 134.897C114.519 133.783 113.954 132.523 113.652 131.189C113.351 129.855 113.319 128.475 113.558 127.129C113.796 125.81 114.306 124.556 115.057 123.445C115.808 122.334 116.783 121.392 117.919 120.679L164.375 91.1364C165.255 90.5795 166.216 90.16 167.224 89.8927C169.426 89.3212 171.751 89.4383 173.885 90.2279C176.018 91.0175 177.858 92.4417 179.154 94.308C180.573 96.3127 181.236 98.7531 181.027 101.198L180.867 102.918L182.594 103.441C189.122 105.407 195.264 108.472 200.757 112.502L203.136 114.242L204.01 111.577C204.479 110.161 204.85 108.716 205.121 107.25C205.916 102.784 205.81 98.2053 204.808 93.7812C203.806 89.3572 201.928 85.1773 199.286 81.4867C194.982 75.2953 188.877 70.5711 181.796 67.952C174.715 65.3328 166.999 64.9449 159.69 66.8407C156.351 67.7317 153.168 69.1272 150.252 70.9788L103.804 100.514C100.029 102.881 96.79 106.007 94.2951 109.694C91.8002 113.381 90.1038 117.546 89.3146 121.925C88.5192 126.39 88.6256 130.97 89.6277 135.394C90.6297 139.818 92.5071 143.998 95.1498 147.688C99.4542 153.88 105.559 158.604 112.64 161.223C119.721 163.842 127.437 164.23 134.746 162.334C138.085 161.444 141.267 160.05 144.184 158.201L161.907 146.927C162.787 146.371 163.748 145.951 164.756 145.684C166.958 145.113 169.284 145.231 171.417 146.022C173.551 146.812 175.39 148.236 176.686 150.103C177.481 151.216 178.047 152.476 178.349 153.809C178.651 155.143 178.684 156.523 178.445 157.869C178.207 159.188 177.696 160.443 176.944 161.553C176.193 162.664 175.218 163.607 174.081 164.32L127.638 193.861C126.757 194.418 125.796 194.838 124.789 195.105C122.586 195.677 120.261 195.56 118.127 194.77C115.994 193.981 114.155 192.556 112.858 190.69C111.438 188.688 110.774 186.249 110.983 183.805L111.142 182.085L109.416 181.562C102.889 179.596 96.7468 176.531 91.2537 172.501L88.873 170.758L87.9987 173.423C87.5291 174.838 87.1584 176.283 86.8893 177.749C86.0942 182.215 86.2006 186.794 87.2023 191.218C88.204 195.642 90.0808 199.822 92.7227 203.513C97.0274 209.704 103.132 214.428 110.213 217.048Z" fill="url(#paint0_linear_2_37)"/>
</g>
<g filter="url(#filter0_b_2_37)">
<rect x="150.723" y="169.129" width="103" height="124" rx="11" transform="rotate(-20.4514 150.723 169.129)" fill="url(#paint1_linear_2_37)"/>
</g>
<g opacity="0.1">
<g filter="url(#filter1_b_2_37)">
<rect x="148" y="172.99" width="103" height="124" rx="11" transform="rotate(-20.4514 148 172.99)" fill="url(#paint2_linear_2_37)"/>
</g>
</g>
<defs>
<filter id="filter0_b_2_37" x="145.871" y="128.286" width="149.541" height="161.879" filterUnits="userSpaceOnUse" color-interpolation-filters="sRGB">
<feFlood flood-opacity="0" result="BackgroundImageFix"/>
<feGaussianBlur in="BackgroundImageFix" stdDeviation="4"/>
<feComposite in2="SourceAlpha" operator="in" result="effect1_backgroundBlur_2_37"/>
<feBlend mode="normal" in="SourceGraphic" in2="effect1_backgroundBlur_2_37" result="shape"/>
</filter>
<filter id="filter1_b_2_37" x="143.147" y="132.147" width="149.541" height="161.879" filterUnits="userSpaceOnUse" color-interpolation-filters="sRGB">
<feFlood flood-opacity="0" result="BackgroundImageFix"/>
<feGaussianBlur in="BackgroundImageFix" stdDeviation="4"/>
<feComposite in2="SourceAlpha" operator="in" result="effect1_backgroundBlur_2_37"/>
<feBlend mode="normal" in="SourceGraphic" in2="effect1_backgroundBlur_2_37" result="shape"/>
</filter>
<linearGradient id="paint0_linear_2_37" x1="146.004" y1="43" x2="146.004" y2="242.003" gradientUnits="userSpaceOnUse">
<stop stop-color="#FD4386"/>
<stop offset="1" stop-color="#EB5027"/>
</linearGradient>
<linearGradient id="paint1_linear_2_37" x1="202.223" y1="169.129" x2="202.223" y2="293.129" gradientUnits="userSpaceOnUse">
<stop stop-color="#EAEAEA" stop-opacity="0.69"/>
<stop offset="1" stop-color="#E2E2E2" stop-opacity="0.03"/>
</linearGradient>
<linearGradient id="paint2_linear_2_37" x1="199.5" y1="172.99" x2="199.5" y2="296.99" gradientUnits="userSpaceOnUse">
<stop stop-color="#EAEAEA" stop-opacity="0.69"/>
<stop offset="1" stop-color="#E2E2E2" stop-opacity="0.03"/>
</linearGradient>
<clipPath id="clip0_2_37">
<rect width="166" height="199" fill="white" transform="translate(63 43)"/>
</clipPath>
</defs>
</svg>
